<svg xmlns="http://www.w3.org/2000/svg" width="820" height="200" viewBox="0 0 820 200" role="img" aria-label="LLMFuzz pipeline">
  <rect width="820" height="200" fill="#F7F8FA"/>
  <text x="410" y="28" text-anchor="middle" fill="#555555" font-family="Arial, Helvetica, sans-serif" font-size="13">LLMFuzz: documentation to seeds to AFL++</text>

  <rect x="20" y="55" width="130" height="90" rx="8" fill="#D4E6F1" stroke="#1F4E79" stroke-width="2"/>
  <text x="85" y="90" text-anchor="middle" fill="#1F4E79" font-family="Arial, Helvetica, sans-serif" font-size="15" font-weight="700">1. Docs</text>
  <text x="85" y="112" text-anchor="middle" fill="#222222" font-family="Arial, Helvetica, sans-serif" font-size="12">PDF / Markdown</text>

  <rect x="185" y="55" width="130" height="90" rx="8" fill="#D5F5E3" stroke="#009E73" stroke-width="2"/>
  <text x="250" y="90" text-anchor="middle" fill="#1F4E79" font-family="Arial, Helvetica, sans-serif" font-size="15" font-weight="700">2. RAG</text>
  <text x="250" y="112" text-anchor="middle" fill="#222222" font-family="Arial, Helvetica, sans-serif" font-size="12">FAISS retrieval</text>

  <rect x="350" y="55" width="130" height="90" rx="8" fill="#D6EAF8" stroke="#0072B2" stroke-width="2"/>
  <text x="415" y="90" text-anchor="middle" fill="#1F4E79" font-family="Arial, Helvetica, sans-serif" font-size="15" font-weight="700">3. LLM</text>
  <text x="415" y="112" text-anchor="middle" fill="#222222" font-family="Arial, Helvetica, sans-serif" font-size="12">typed constraints</text>

  <rect x="515" y="55" width="130" height="90" rx="8" fill="#D6EAF8" stroke="#0072B2" stroke-width="2"/>
  <text x="580" y="90" text-anchor="middle" fill="#1F4E79" font-family="Arial, Helvetica, sans-serif" font-size="15" font-weight="700">4. Encoder</text>
  <text x="580" y="112" text-anchor="middle" fill="#222222" font-family="Arial, Helvetica, sans-serif" font-size="12">I2C / PMBus bytes</text>

  <rect x="680" y="55" width="120" height="90" rx="8" fill="#FDEBD0" stroke="#E69F00" stroke-width="2"/>
  <text x="740" y="90" text-anchor="middle" fill="#1F4E79" font-family="Arial, Helvetica, sans-serif" font-size="15" font-weight="700">5. AFL++</text>
  <text x="740" y="112" text-anchor="middle" fill="#222222" font-family="Arial, Helvetica, sans-serif" font-size="12">coverage fuzzing</text>

  <polygon points="155,100 180,90 180,110" fill="#1F4E79"/>
  <polygon points="320,100 345,90 345,110" fill="#1F4E79"/>
  <polygon points="485,100 510,90 510,110" fill="#1F4E79"/>
  <polygon points="650,100 675,90 675,110" fill="#1F4E79"/>
</svg>
